<?xml version="1.0" encoding="UTF-8"?>
<svg width="25px" height="23px" viewBox="0 0 25 23" version="1.1" xmlns="http://www.w3.org/2000/svg" xmlns:xlink="http://www.w3.org/1999/xlink">
    <!-- Generator: Sketch 54.1 (76490) - https://sketchapp.com -->
    <title>binoculars</title>
    <desc>Created with Sketch.</desc>
    <g id="Page-1" stroke="none" stroke-width="1" fill="none" fill-rule="evenodd">
        <g id="Artboard" transform="translate(-86.000000, -89.000000)" fill-rule="nonzero">
            <g id="banner" transform="translate(64.000000, 71.000000)">
                <g id="who-logo" transform="translate(13.000000, 8.000000)">
                    <g id="binoculars" transform="translate(9.000000, 10.000000)">
                        <path d="M4.296875,4.79166667 C3.6496582,4.79166667 3.125,5.32798394 3.125,5.98958333 C3.125,11.1805556 0,11.9791667 0,19.1666667 L8.203125,19.1666667 L8.203125,13.9756944 C8.203125,13.3140951 8.7277832,12.7777778 9.375,12.7777778 L9.375,4.79166667" id="Path" fill="#004987"></path>
                        <path d="M0,21.1631944 C0,21.8247938 0.524658203,22.3611111 1.171875,22.3611111 L7.03125,22.3611111 C7.6784668,22.3611111 8.203125,21.8247938 8.203125,21.1631944 L8.203125,20.3645833 L0,20.3645833 L0,21.1631944 Z" id="Path" fill="#004987"></path>
                        <path d="M9.375,3.59375 L4.6875,3.59375 L4.6875,1.19791667 C4.6875,0.536317274 5.2121582,0 5.859375,0 L8.203125,0 C8.8503418,0 9.375,0.536317274 9.375,1.19791667 L9.375,3.59375 Z" id="Path" fill="#004987"></path>
                        <path d="M20.3125,1.19791667 C20.3125,0.536317274 19.7878418,0 19.140625,0 L16.796875,0 C16.1496582,0 15.625,0.536317274 15.625,1.19791667 L15.625,3.59375 L20.3125,3.59375 L20.3125,1.19791667 Z" id="Path" fill="#DAAA00"></path>
                        <path d="M16.796875,21.1631944 C16.796875,21.8247938 17.3215332,22.3611111 17.96875,22.3611111 L23.828125,22.3611111 C24.4753418,22.3611111 25,21.8247938 25,21.1631944 L25,20.3645833 L16.796875,20.3645833 L16.796875,21.1631944 Z" id="Path" fill="#DAAA00"></path>
                        <polygon id="Path" fill="#DAAA00" points="10.546875 4.79166667 10.546875 12.7777778 14.453125 12.7777778 14.453125 4.79166667"></polygon>
                        <path d="M16.796875,19.1666667 L25,19.1666667 C25,11.9791667 21.875,11.1805556 21.875,5.98958333 C21.875,5.32798394 21.3503418,4.79166667 20.703125,4.79166667 L15.625,4.79166667 L15.625,12.7777778 C16.2722168,12.7777778 16.796875,13.3140951 16.796875,13.9756944 L16.796875,19.1666667 Z" id="Path" fill="#DAAA00"></path>
                    </g>
                </g>
            </g>
        </g>
    </g>
</svg>