<?xml version="1.0" encoding="UTF-8"?>
<svg width="127px" height="21px" viewBox="0 0 127 21" version="1.1" xmlns="http://www.w3.org/2000/svg" xmlns:xlink="http://www.w3.org/1999/xlink">
    <!-- Generator: Sketch 54.1 (76490) - https://sketchapp.com -->
    <title>Combined Shape</title>
    <desc>Created with Sketch.</desc>
    <defs>
        <linearGradient x1="2.38638231%" y1="48.3546217%" x2="95.3376685%" y2="48.3546227%" id="linearGradient-1">
            <stop stop-color="#1D3A5C" offset="0%"></stop>
            <stop stop-color="#3E90A1" offset="38.5542889%"></stop>
            <stop stop-color="#57A6A2" offset="51.1499522%"></stop>
            <stop stop-color="#8EB172" offset="58.1592793%"></stop>
            <stop stop-color="#A7B55B" offset="74.5754943%"></stop>
            <stop stop-color="#B0B44F" offset="79.7054369%"></stop>
            <stop stop-color="#DABA54" offset="100%"></stop>
        </linearGradient>
    </defs>
    <g id="Page-1" stroke="none" stroke-width="1" fill="none" fill-rule="evenodd">
        <g id="Artboard" transform="translate(-737.000000, -1109.000000)" fill="url(#linearGradient-1)" fill-rule="nonzero">
            <path d="M811.70061,1115.11102 L810.31231,1121.88121 L813.097794,1121.88121 C813.097794,1121.88121 811.828781,1115.93898 811.70061,1115.11102 Z M801.13227,1128.92696 L807.759056,1109.50699 L815.483538,1109.50699 L822.384431,1128.92696 L815.016542,1128.92696 L814.314777,1126.48693 L809.055987,1126.48693 L808.50016,1128.92696 L801.13227,1128.92696 Z M783.045027,1109.50574 L790.181956,1109.50574 C796.662806,1109.50574 801.611957,1112.35786 801.611957,1119.49379 C801.611957,1125.24438 797.576495,1128.92445 791.910352,1128.92445 L783.045027,1128.91318 L783.045027,1109.50574 Z M790.055055,1123.34923 L790.532204,1123.34923 C792.870995,1123.34923 794.601929,1122.00521 794.601929,1119.47125 C794.601929,1116.74188 793.066423,1115.21875 790.497941,1115.21875 L790.055055,1115.21875 L790.055055,1123.34923 Z M778.802716,1110.11449 L779.178344,1113.3023 C779.268444,1114.05886 779.718944,1115.87259 779.164385,1115.62959 C778.814138,1115.47803 778.527341,1114.65759 778.243082,1113.92609 C778.098414,1113.55658 777.408071,1111.80297 777.226602,1111.6727 C776.357328,1111.04516 774.179702,1110.33996 772.707647,1110.33369 C768.239452,1110.31741 765.287728,1113.47641 765.287728,1119.07919 C765.287728,1123.09746 767.295306,1127.92364 772.403084,1127.92364 C774.231731,1127.92364 777.734207,1127.3675 778.687236,1124.87361 C779.117432,1123.74504 779.512095,1122.73922 779.798892,1123.0461 C780.009548,1123.26656 779.735441,1124.17217 779.60854,1124.65942 C779.007028,1126.97293 778.972764,1127.67313 778.783681,1127.76456 C776.476616,1128.87309 773.517277,1129.23885 770.927221,1129.23885 C762.697672,1129.23885 759.853814,1124.63312 759.853814,1120.02864 C759.853814,1112.03845 764.970474,1108.72914 772.906882,1109.01723 C774.911922,1109.08988 776.92077,1109.4356 778.802716,1110.11449 Z M754.492234,1110.46897 L753.173729,1110.02806 C752.729575,1109.64478 753.268905,1109.53831 753.268905,1109.53831 C753.268905,1109.53831 755.172425,1109.87776 759.918533,1109.49321 C759.918533,1109.49321 760.33477,1109.57087 760.049242,1109.89279 L758.490894,1110.53285 C757.478221,1110.95622 757.478221,1110.71197 757.478221,1111.77792 L757.469338,1121.67453 C757.469338,1129.41421 749.258824,1129.2401 747.659867,1129.2401 C746.89846,1129.2401 739.426511,1129.2401 739.426511,1123.02606 L739.426511,1112.55201 C739.426511,1110.72325 739.628284,1110.7746 738.997584,1110.55916 L737.090258,1109.87275 C737.090258,1109.87275 736.767928,1109.43685 737.341522,1109.46315 C738.898601,1109.53831 741.153638,1109.85897 746.393392,1109.49321 C746.393392,1109.49321 746.852775,1109.59968 746.552019,1109.9216 L745.027934,1110.34622 C743.822372,1110.86479 743.980999,1110.46897 743.950542,1111.65516 L743.986075,1121.98517 C743.986075,1124.51788 745.343919,1127.65308 749.563387,1127.65308 C755.381812,1127.65308 755.43511,1122.82565 755.43511,1121.75344 L755.446531,1111.52364 C755.508713,1110.55916 755.380543,1110.83347 754.492234,1110.46897 Z M848.229151,1127.43514 L850.259572,1122.28454 L850.616164,1122.57388 C851.862335,1123.55089 853.556468,1124.38135 855.152886,1124.41517 C856.581795,1124.44398 857.278483,1124.07948 857.090669,1122.92335 C856.946001,1122.05406 855.928253,1121.90501 855.292477,1121.78225 L853.894025,1121.51545 C851.17453,1121.0282 848.891576,1119.42114 848.891576,1116.37613 C848.891576,1111.7704 853.031096,1109.19009 857.195997,1109.19009 C859.385044,1109.19009 861.390085,1109.72118 863.269493,1110.8936 L861.504296,1115.46049 C860.537308,1114.79287 859.071598,1113.85093 857.220108,1113.7858 C856.607175,1113.76325 855.213799,1114.07264 855.659222,1115.42918 C855.852112,1116.00787 856.71631,1116.25212 857.248026,1116.37488 L858.822872,1116.74063 C861.772058,1117.39948 863.901462,1119.00779 863.901462,1122.29205 C863.901462,1126.92534 859.73783,1129.21755 855.599579,1129.21755 C853.185916,1129.21755 850.389011,1128.55745 848.229151,1127.43514 Z M839.763565,1109.50699 L846.731715,1109.50699 L846.731715,1128.92696 L839.763565,1128.92696 L839.763565,1109.50699 Z M831.773859,1109.50574 L839.033882,1109.50574 L831.61777,1128.92445 L825.725743,1128.92445 L818.331204,1109.50574 L825.569654,1109.50574 L828.669853,1121.2236 L831.773859,1109.50574 Z" id="Combined-Shape"></path>
        </g>
    </g>
</svg>